Coordinates
version=1
nRows=7
nColumns=40
inDegrees=yes

Units are S.I. units (second, meters, Newtons, ...)
Angles are in degrees.

endheader
time	pelvis_tilt	pelvis_list	pelvis_rotation	pelvis_tx	pelvis_ty	pelvis_tz	hip_flexion_r	hip_adduction_r	hip_rotation_r	knee_angle_r	knee_angle_r_beta	ankle_angle_r	subtalar_angle_r	mtp_angle_r	hip_flexion_l	hip_adduction_l	hip_rotation_l	knee_angle_l	knee_angle_l_beta	ankle_angle_l	subtalar_angle_l	mtp_angle_l	lumbar_extension	lumbar_bending	lumbar_rotation	arm_flex_r	arm_add_r	arm_rot_r	elbow_flex_r	pro_sup_r	wrist_flex_r	wrist_dev_r	arm_flex_l	arm_add_l	arm_rot_l	elbow_flex_l	pro_sup_l	wrist_flex_l	wrist_dev_l
     44.70250000	     -6.86659092	     -4.19723001	      0.06080093	      0.82989487	      0.92606976	      0.44086461	     32.83848725	     -5.07606331	     -6.53205005	     65.33208042	     65.33208042	      2.13302011	    -19.22585835	     13.98423341	     17.23388440	     -5.17088747	     -4.01258686	     23.31150042	     23.31150042	     14.29187694	    -13.90570346	      2.71599481	    -11.10498080	      4.63857720	      1.16342052	      8.97809709	    -13.88669221	     -0.35378120	     24.85300991	     47.12340635	      0.00000000	      0.00000000	     -0.16134143	    -12.64620307	    -15.87136420	     55.04366102	     46.62347828	      0.00000000	      0.00000000
     44.71471429	     -6.89839471	     -4.26967793	     -0.45565916	      0.82983618	      0.92658152	      0.44169968	     33.57839851	     -4.73640015	     -6.60028367	     63.60844212	     63.60844212	      2.74456042	    -19.17393685	     13.62932340	     16.46398281	     -5.37395620	     -4.47234832	     22.78476388	     22.78476388	     14.51179105	    -13.80826921	      2.67810309	    -11.24459253	      4.78552017	      1.31371574	      7.63318735	    -14.38665825	     -0.93299911	     24.04269795	     47.18424414	      0.00000000	      0.00000000	     -0.04890065	    -12.72970441	    -16.03302619	     56.06758731	     46.66203460	      0.00000000	      0.00000000
     44.72692857	     -7.01520275	     -4.37620357	     -0.93924714	      0.82974431	      0.92706228	      0.44264485	     34.25996329	     -4.28777360	     -6.67216551	     61.39299810	     61.39299810	      3.23719935	    -19.07004082	     13.28572598	     15.80268124	     -5.60016031	     -4.86087435	     22.27557931	     22.27557931	     14.67826209	    -13.75071378	      2.67598125	    -11.30018814	      5.00326264	      1.13893647	      6.46180702	    -14.80314187	     -1.34768621	     23.49515540	     47.22653624	      0.00000000	      0.00000000	     -0.11252993	    -12.92561266	    -16.15268366	     56.75856328	     46.68773669	      0.00000000	      0.00000000
     44.73914286	     -7.11971540	     -4.44671274	     -1.42911211	      0.82970305	      0.92745057	      0.44377161	     34.70461975	     -3.84719463	     -6.77506089	     58.63999729	     58.63999729	      3.06558227	    -18.95970907	     10.57716013	     15.10284646	     -5.80585271	     -5.34338674	     21.72224918	     21.72224918	     14.73380308	    -13.63171300	      2.31454916	    -11.40090120	      5.13638366	      0.95690686	      5.34275321	    -14.95407605	     -3.82631542	     23.07311022	     47.40799925	      0.00000000	      0.00000000	     -0.62404116	    -13.19007600	    -16.15063256	     58.63146983	     46.75638330	      0.00000000	      0.00000000
     44.75135714	     -7.31683963	     -4.56780436	     -1.86820407	      0.82964200	      0.92767856	      0.44508505	     35.18206205	     -3.23259774	     -6.79202005	     55.66200617	     55.66200617	      3.66824842	    -18.65973422	     10.51204612	     14.55680130	     -6.04257972	     -5.65609741	     21.25223711	     21.25223711	     14.89153485	    -13.64798469	      2.37181905	    -11.33268622	      5.35377829	      0.72905860	      4.23489266	    -15.31017631	     -3.99884992	     22.61684540	     47.42924304	      0.00000000	      0.00000000	     -0.58978251	    -13.39686257	    -16.27387766	     58.90507468	     46.77411320	      0.00000000	      0.00000000
     44.76357143	     -7.33085249	     -4.70257153	     -2.28382053	      0.82983698	      0.92814626	      0.44656200	     35.23577947	     -2.57771859	     -6.82619276	     52.24783888	     52.24783888	      4.04481489	    -18.21171135	      9.94098231	     13.75136107	     -6.30774440	     -6.05579853	     20.71302777	     20.71302777	     15.06010534	    -13.49109374	      2.36064685	    -11.48962863	      5.54160139	      0.77285136	      3.06571921	    -15.71182717	     -4.33169693	     22.23471469	     47.45816071	      0.00000000	      0.00000000	     -0.42354415	    -13.40018937	    -16.34436791	     59.62176820	     46.79757444	      0.00000000	      0.00000000
     44.77578571	     -7.56639538	     -4.79863617	     -2.64970729	      0.83001586	      0.92804834	      0.44813735	     35.41042328	     -1.98032376	     -6.90109449	     48.64068699	     48.64068699	      4.55132671	    -17.42399181	      9.59285361	     13.26130661	     -6.52712447	     -6.36231368	     20.28730457	     20.28730457	     15.23624118	    -13.44126564	      2.33300059	    -11.32705240	      5.71076844	      0.53262908	      1.99480306	    -15.95964216	     -4.53938049	     21.95380359	     47.47489493	      0.00000000	      0.00000000	     -0.45524718	    -13.58874677	    -16.40590901	     60.04184243	     46.81214669	      0.00000000	      0.00000000
